<svg id="Capa_1" enable-background="new 0 0 512 512" height="512" viewBox="0 0 512 512" width="512" xmlns="http://www.w3.org/2000/svg"><g clip-rule="evenodd" fill-rule="evenodd"><path d="m271.353 82.229h144.232c0-39.841-32.291-72.144-72.116-72.144s-72.116 32.303-72.116 72.144z" fill="#e6d5cf"/><path d="m271.353 429.771c0 39.841 32.291 72.144 72.116 72.144s72.116-32.303 72.116-72.144z" fill="#e6d5cf"/><path d="m62.567 69.931v372.11c0 16.463 13.454 29.951 29.911 29.951s29.911-13.488 29.911-29.951v-9.974-51.515-249.103-51.516-10.002c0-16.463-13.454-29.923-29.911-29.923s-29.911 13.459-29.911 29.923z" fill="#faf7f5"/><path d="m122.39 131.449h45.887v-25.758-25.758h-45.887z" fill="#e6d5cf"/><path d="m122.39 432.067h45.887v-25.758-25.758h-45.887z" fill="#e6d5cf"/><path d="m260.957 190.331 165.023-61.178h-165.023z" fill="#ff9eb1"/><path d="m260.957 254.512 165.023-61.206v-64.153l-165.023 61.178z" fill="#faf7f5"/><path d="m260.957 318.665 165.023-61.177v-64.182l-165.023 61.206z" fill="#66e0f7"/><path d="m260.957 382.847 165.023-61.206v-64.153l-165.023 61.177z" fill="#faf7f5"/><path d="m260.957 382.847h165.023v-61.206z" fill="#ff9eb1"/><path d="m271.353 429.771h144.232 10.395c12.888 0 23.453-10.569 23.453-23.462 0-12.921-10.537-23.462-23.453-23.462h-165.023c-12.916 0-23.453 10.541-23.453 23.462 0 12.893 10.537 23.462 23.453 23.462z" fill="#f5eeec"/><path d="m260.957 129.153h165.023c12.888 0 23.453-10.569 23.453-23.462 0-12.921-10.537-23.462-23.453-23.462h-10.395-144.232-10.395c-12.916 0-23.453 10.541-23.453 23.462-.001 12.893 10.536 23.462 23.452 23.462z" fill="#faf7f5"/></g><path d="m436.065 374.314v-236.628c13.58-4.292 23.453-17.011 23.453-31.995 0-18.498-15.045-33.547-33.537-33.547h-.952c-4.989-40.598-39.65-72.144-81.56-72.144-41.911 0-76.572 31.546-81.561 72.144h-.951c-14.981 0-27.697 9.877-31.988 23.463h-50.608v-15.674c0-5.57-4.515-10.085-10.085-10.085h-35.804c-.045-22.022-17.968-39.926-39.994-39.926-22.054 0-39.996 17.948-39.996 40.008v372.11c0 22.076 17.943 40.036 39.996 40.036 22.017 0 39.933-17.901 39.994-39.926h35.805c5.57 0 10.085-4.515 10.085-10.085v-15.673h50.608c4.29 13.585 17.006 23.462 31.988 23.462h.951c4.989 40.598 39.65 72.144 81.561 72.144 41.91 0 76.571-31.546 81.56-72.144h.952c18.493 0 33.537-15.049 33.537-33.547-.001-14.982-9.874-27.7-23.454-31.993zm-20.169-123.843-144.854 53.701v-42.644l144.854-53.726zm-144.854 75.211 144.854-53.701v42.643l-144.854 53.726zm144.854-139.391-144.854 53.726v-42.668l144.854-53.701zm-144.854-10.454v-36.599h98.724zm144.854 160.3v36.625h-98.749zm-154.938-243.824h37.729c5.569 0 10.084-4.515 10.084-10.085s-4.515-10.085-10.084-10.085h-16.418c4.831-29.438 30.429-51.974 61.201-51.974 30.771 0 56.369 22.536 61.2 51.974h-16.247c-5.569 0-10.084 4.515-10.084 10.085s4.515 10.085 10.084 10.085h37.559c7.371 0 13.368 6.001 13.368 13.378 0 7.376-5.997 13.377-13.368 13.377h-165.024c-7.372 0-13.369-6.001-13.369-13.377s5.997-13.378 13.369-13.378zm-102.766 29.051h-25.717v-31.346h25.717zm-45.887 320.677c0 10.955-8.894 19.867-19.827 19.867s-19.827-8.912-19.827-19.867v-372.11c0-10.939 8.894-19.838 19.827-19.838s19.827 8.899 19.827 19.838zm45.887-20.059h-25.717v-31.346h25.717zm10.085-51.516h-35.802v-228.932h35.802c5.57 0 10.085-4.515 10.085-10.085v-15.673h50.608c3.284 10.399 11.506 18.624 21.903 21.91v236.628c-10.396 3.286-18.618 11.511-21.903 21.91h-50.608v-15.673c0-5.57-4.515-10.085-10.085-10.085zm175.192 121.364c-30.772 0-56.37-22.536-61.201-51.974h122.4c-4.83 29.438-30.428 51.974-61.199 51.974zm82.512-72.144h-165.023c-7.372 0-13.369-6.001-13.369-13.377 0-7.367 5.982-13.361 13.342-13.376.009 0 .019.001.028.001.018 0 .037-.002.056-.002h164.966c7.371 0 13.368 6.001 13.368 13.377s-5.997 13.377-13.368 13.377z"/><path d="m343.469 92.313h.198c5.569 0 10.084-4.515 10.084-10.085s-4.515-10.085-10.084-10.085h-.198c-5.569 0-10.084 4.515-10.084 10.085s4.515 10.085 10.084 10.085z"/></svg>