<?xml version="1.0" encoding="UTF-8" standalone="no"?>
<svg
   xmlns:dc="http://purl.org/dc/elements/1.1/"
   xmlns:cc="http://creativecommons.org/ns#"
   xmlns:rdf="http://www.w3.org/1999/02/22-rdf-syntax-ns#"
   xmlns:svg="http://www.w3.org/2000/svg"
   xmlns="http://www.w3.org/2000/svg"
   version="1.1"
   id="Capa_1"
   x="0px"
   y="0px"
   viewBox="0 0 15 15"
   xml:space="preserve"
   width="15"
   height="15"><metadata
   id="metadata90"><rdf:RDF><cc:Work
       rdf:about=""><dc:format>image/svg+xml</dc:format><dc:type
         rdf:resource="http://purl.org/dc/dcmitype/StillImage" /><dc:title></dc:title></cc:Work></rdf:RDF></metadata><defs
   id="defs88" />
<path
   style="fill:#fd003a;stroke-width:0.0292969"
   d="m 7.2865983,0.00913471 c -2.90924,0 -5.27344,2.36425879 -5.27344,5.27343969 0,0.9843754 0.27252,1.9424129 0.791045,2.7685851 l 4.124914,6.7504135 c 0.07037,0.114258 0.17584,0.1846 0.298916,0.202178 0.166934,0.02634 0.351592,-0.04395 0.448243,-0.210938 L 11.812996,7.9808177 c 0.492129,-0.8085648 0.747041,-1.7489949 0.747041,-2.6982433 0,-2.9091809 -2.3642,-5.27343969 -5.2734387,-5.27343969 z m 0,7.91015959 c -1.476505,0 -2.63672,-1.195313 -2.63672,-2.6367199 0,-1.4502252 1.186494,-2.6367198 2.63672,-2.6367198 1.450225,0 2.6367196,1.1864946 2.6367196,2.6367198 0,1.4326178 -1.1426076,2.6367199 -2.6367196,2.6367199 z"
   id="path51" />
<path
   style="fill:#e50027;fill-opacity:1;stroke-width:0.0292972"
   d="M 7.2865983,0.00913471 V 2.6458785 c 1.45024,0 2.6367396,1.1865055 2.6367396,2.6367439 0,1.4326308 -1.1426096,2.6367438 -2.6367396,2.6367438 v 7.0896478 c 0.14997,0.0035 0.30419,-0.06841 0.38965,-0.216066 L 11.813008,7.9808902 c 0.49216,-0.8085721 0.74708,-1.7490107 0.74708,-2.6982678 0,-2.9092074 -2.36422,-5.27348769 -5.2734897,-5.27348769 z"
   id="path53" />
<g
   id="g55">
</g>
<g
   id="g57">
</g>
<g
   id="g59">
</g>
<g
   id="g61">
</g>
<g
   id="g63">
</g>
<g
   id="g65">
</g>
<g
   id="g67">
</g>
<g
   id="g69">
</g>
<g
   id="g71">
</g>
<g
   id="g73">
</g>
<g
   id="g75">
</g>
<g
   id="g77">
</g>
<g
   id="g79">
</g>
<g
   id="g81">
</g>
<g
   id="g83">
</g>
<g
   id="layer1"><rect
     style="fill:#e50027;fill-opacity:1"
     id="rect418"
     width="2.7142079"
     height="5.3494034"
     x="7.2865958"
     y="2.6458786" /><rect
     style="fill:#fd003a;fill-opacity:1;stroke-width:0.978332"
     id="rect420"
     width="2.849472"
     height="5.3494029"
     x="4.4371238"
     y="2.6458786" /></g><g
   id="layer2"><g
     id="g357"
     transform="matrix(0.01562799,0,0,0.01562799,2.9251913,1.0932494)"><g
       id="g331"><g
         id="g329"><path
           d="m 382.465,7.5 c -1.747,0 -3.89,1.238 -4.763,2.75 l -191.87,332.328 c -0.314,0.543 -0.962,0.785 -1.559,0.593 -29.841,-9.612 -63.398,2.709 -79.385,31.261 -15.647,27.942 -9.048,62.848 14.227,83.419 0.469,0.415 0.588,1.097 0.275,1.64 l -3.401,5.891 c -5.126,8.879 -14.681,14.396 -24.936,14.396 H 52.694 c -1.29,0 -2.37,1.033 -2.373,2.322 -0.027,12.653 10.26,22.956 22.906,22.956 h 17.826 c 19.317,0 37.167,-10.306 46.826,-27.035 l 3.471,-6.012 c 0.311,-0.538 0.955,-0.778 1.546,-0.585 29.612,9.633 62.929,-2.365 79.123,-30.413 16.16,-27.99 9.952,-62.755 -13.078,-83.598 -0.465,-0.421 -0.58,-1.104 -0.266,-1.646 l 44.286,-76.706 c 0.161,-0.279 0.441,-0.469 0.76,-0.514 l 35.075,-5.009 c 0.355,-0.051 0.66,-0.28 0.808,-0.607 L 393.731,42.502 C 399.528,29.673 394.657,14.539 382.465,7.5 Z M 163.678,449.392 c -23.232,0 -42.065,-18.833 -42.065,-42.064 0,-23.232 18.833,-42.065 42.065,-42.065 23.232,0 42.065,18.833 42.065,42.065 -0.001,23.231 -18.834,42.064 -42.065,42.064 z"
           fill="#b9c1cb"
           id="path327" /></g></g><g
       id="g335"><path
         d="M 250.146,231.183 279.308,180.673 180.914,10.25 C 180.041,8.738 177.897,7.5 176.151,7.5 163.959,14.539 159.088,29.673 164.885,42.502 Z"
         fill="#a0aab7"
         id="path333" /></g><g
       id="g341"><g
         id="g339"><path
           d="m 454.678,376.187 c -15.576,-29.799 -49.889,-42.823 -80.335,-33.016 -0.597,0.192 -1.246,-0.05 -1.559,-0.593 L 308.47,231.183 289.605,272.931 c -0.148,0.327 -0.453,0.556 -0.808,0.607 l -9.489,1.355 25.586,3.654 c 0.319,0.046 0.599,0.235 0.76,0.514 l 44.286,76.706 c 0.313,0.543 0.199,1.226 -0.266,1.646 -19.809,17.928 -27.172,46.156 -18.56,71.514 0.169,0.497 0.031,1.046 -0.361,1.396 l -28.862,25.834 c -1.39,1.244 -1.844,3.085 -1.187,4.806 0.666,1.741 2.256,2.867 4.051,2.867 0.475,0 0.956,-0.079 1.431,-0.235 l 36.826,-12.086 c 0.498,-0.164 1.042,-0.01 1.389,0.384 21.334,24.244 57.88,30.439 86.518,12.39 29.492,-18.588 39.908,-57.201 23.759,-88.096 z m -59.74,73.205 c -23.232,0 -42.065,-18.833 -42.065,-42.064 0,-23.232 18.833,-42.065 42.065,-42.065 23.232,0 42.065,18.833 42.065,42.065 0,23.231 -18.833,42.064 -42.065,42.064 z"
           fill="#a0aab7"
           id="path337" /></g></g><g
       id="g345"><circle
         cx="279.30801"
         cy="232.368"
         fill="#dae4ea"
         r="25.969999"
         id="circle343" /></g><g
       id="g349"><path
         d="m 285.315,207.097 c 3.121,4.286 4.962,9.563 4.962,15.271 0,14.343 -11.627,25.969 -25.97,25.969 -2.068,0 -4.079,-0.242 -6.007,-0.699 4.722,6.484 12.372,10.699 21.007,10.699 14.343,0 25.97,-11.627 25.97,-25.969 0.001,-12.275 -8.516,-22.56 -19.962,-25.271 z"
         fill="#c6d0da"
         id="path347" /></g><path
       d="m 73.228,512.556 h 17.826 c 21.926,0 42.357,-11.796 53.321,-30.784 l 1.05,-1.819 c 32.238,8.102 66.461,-6.389 83.09,-35.191 16.681,-28.893 11.942,-65.688 -10.936,-89.416 l 40.309,-69.817 21.421,-3.059 21.419,3.058 40.308,69.814 c -18.425,19.058 -25.388,46.47 -18.245,72.043 l -25.9,23.183 c -9.506,8.506 -0.659,24.186 11.634,20.153 l 33.061,-10.85 c 24.539,24.931 63.36,29.647 93.333,10.756 32.726,-20.626 44.325,-63.635 26.407,-97.915 C 445.144,341.754 410.23,326.289 376.868,334.65 L 316.889,230.763 400.565,45.59 C 407.982,29.178 401.812,10.01 386.215,1.005 385.075,0.347 383.781,0 382.465,0 378.047,0 373.417,2.672 371.206,6.5 L 279.308,165.673 267.44,145.117 c -2.071,-3.587 -6.658,-4.817 -10.245,-2.745 -3.587,2.071 -4.816,6.658 -2.745,10.245 l 16.198,28.056 c -22.913,39.687 -17.8,30.901 -19.735,33.993 L 171.719,39.413 c -3.554,-7.866 -1.635,-16.842 4.351,-22.553 l 60.426,104.661 c 2.071,3.588 6.658,4.816 10.245,2.745 3.587,-2.071 4.816,-6.658 2.745,-10.245 L 187.41,6.501 C 185.201,2.673 180.571,0 176.151,0 c -1.316,0 -2.61,0.347 -3.75,1.005 -15.598,9.005 -21.767,28.173 -14.351,44.585 l 83.677,185.175 -59.981,103.89 c -32.411,-8.071 -66.866,6.582 -83.402,36.112 -2.024,3.614 -0.734,8.185 2.879,10.208 3.614,2.023 8.185,0.734 10.208,-2.879 13.884,-24.794 43.551,-36.48 70.54,-27.787 3.935,1.269 8.291,-0.405 10.355,-3.981 l 57.097,-98.896 c 6.484,12.811 20.615,20.393 35.357,17.958 l -0.553,1.224 c -11.786,1.683 -19.87,2.838 -31.563,4.507 -2.619,0.373 -4.879,1.9 -6.2,4.189 l -44.286,76.706 c -2.063,3.574 -1.337,8.182 1.729,10.957 20.744,18.774 25.629,50.016 11.616,74.288 -14.054,24.343 -43.621,35.711 -70.307,27.031 -3.938,-1.282 -8.293,0.387 -10.362,3.967 l -3.471,6.012 c -8.292,14.362 -23.746,23.285 -40.331,23.285 H 73.228 c -6.828,0 -12.466,-4.433 -14.532,-10.278 h 32.357 c 12.925,0 24.969,-6.954 31.431,-18.147 l 3.399,-5.888 c 2.088,-3.613 1.33,-8.245 -1.802,-11.012 -12.787,-11.301 -20.151,-27.676 -20.207,-44.927 -0.013,-4.093 -3.317,-7.476 -7.524,-7.476 -4.142,0.013 -7.489,3.382 -7.476,7.524 0.064,19.813 7.87,38.714 21.578,52.619 l -0.959,1.661 c -3.791,6.566 -10.856,10.646 -18.44,10.646 H 52.694 c -5.434,0 -9.862,4.4 -9.873,9.806 -0.035,16.81 13.593,30.472 30.407,30.472 z M 366.289,346.328 c 2.063,3.573 6.416,5.249 10.354,3.981 27.797,-8.955 57.82,3.392 71.389,29.352 14.325,27.404 5.051,61.787 -21.111,78.277 -25.051,15.788 -57.387,11.162 -76.888,-10.999 -2.336,-2.655 -6.012,-3.658 -9.359,-2.556 l -22.709,7.453 17.788,-15.922 c 2.636,-2.357 3.604,-6.047 2.464,-9.399 -7.671,-22.59 -1.198,-47.532 16.49,-63.54 3.067,-2.774 3.795,-7.383 1.73,-10.958 l -44.28,-76.695 c -1.32,-2.296 -3.582,-3.827 -6.202,-4.2 l -6.859,-0.979 10.189,-22.549 z M 272.676,215.129 c 12.043,-4.65 25.102,4.288 25.102,17.238 0,2.336 -0.436,4.573 -1.231,6.632 z M 382.546,16.86 c 5.985,5.711 7.905,14.687 4.351,22.553 L 307.704,214.666 C 301.389,204.574 289.991,198.249 277.416,198.952 323.923,118.398 375.137,29.692 382.546,16.86 Z M 260.839,232.368 c 0,-2.336 0.436,-4.572 1.231,-6.632 l 23.87,23.87 c -12.044,4.65 -25.101,-4.289 -25.101,-17.238 z"
       id="path351" /><path
       d="m 163.677,456.892 c 27.33,0 49.565,-22.234 49.565,-49.564 0,-27.33 -22.235,-49.564 -49.565,-49.564 -27.33,0 -49.564,22.234 -49.564,49.564 0,27.33 22.234,49.564 49.564,49.564 z m 0,-84.129 c 19.059,0 34.565,15.505 34.565,34.564 0,19.059 -15.506,34.564 -34.565,34.564 -19.059,0 -34.564,-15.505 -34.564,-34.564 0,-19.059 15.505,-34.564 34.564,-34.564 z"
       id="path353" /><path
       d="m 394.938,456.892 c 11.959,0 23.51,-4.319 32.523,-12.161 3.125,-2.719 3.454,-7.457 0.735,-10.582 -2.72,-3.125 -7.457,-3.453 -10.582,-0.735 -6.283,5.467 -14.336,8.478 -22.676,8.478 -19.059,0 -34.564,-15.505 -34.564,-34.564 0,-19.059 15.505,-34.564 34.564,-34.564 19.059,0 34.564,15.505 34.564,34.564 0,4.142 3.358,7.5 7.5,7.5 4.142,0 7.5,-3.358 7.5,-7.5 0,-27.33 -22.234,-49.564 -49.564,-49.564 -27.33,0 -49.564,22.234 -49.564,49.564 0,27.33 22.234,49.564 49.564,49.564 z"
       id="path355" /></g></g></svg>
