<?xml version="1.0" encoding="UTF-8"?>
<svg xmlns="http://www.w3.org/2000/svg" xmlns:xlink="http://www.w3.org/1999/xlink" width="15pt" height="15pt" viewBox="0 0 15 15" version="1.1">
<g id="surface1">
<path style=" stroke:none;fill-rule:nonzero;fill:rgb(72.54902%,75.686275%,79.607843%);fill-opacity:1;" d="M 11.191406 0.21875 C 11.140625 0.21875 11.078125 0.253906 11.054688 0.300781 L 5.4375 10.027344 C 5.429688 10.042969 5.410156 10.046875 5.394531 10.042969 C 4.519531 9.761719 3.539062 10.121094 3.070312 10.957031 C 2.613281 11.777344 2.804688 12.796875 3.484375 13.398438 C 3.5 13.410156 3.503906 13.429688 3.492188 13.445312 L 3.394531 13.621094 C 3.246094 13.878906 2.964844 14.039062 2.664062 14.039062 L 1.542969 14.039062 C 1.503906 14.039062 1.472656 14.070312 1.472656 14.109375 C 1.472656 14.480469 1.773438 14.78125 2.144531 14.78125 L 2.664062 14.78125 C 3.230469 14.78125 3.753906 14.480469 4.035156 13.988281 L 4.136719 13.8125 C 4.144531 13.796875 4.164062 13.789062 4.183594 13.796875 C 5.046875 14.078125 6.023438 13.726562 6.496094 12.90625 C 6.96875 12.085938 6.789062 11.070312 6.113281 10.460938 C 6.101562 10.449219 6.097656 10.425781 6.105469 10.410156 L 7.402344 8.167969 C 7.40625 8.160156 7.414062 8.152344 7.425781 8.152344 L 8.453125 8.003906 C 8.460938 8.003906 8.472656 7.996094 8.476562 7.988281 L 11.523438 1.242188 C 11.691406 0.867188 11.550781 0.425781 11.191406 0.21875 Z M 4.789062 13.152344 C 4.109375 13.152344 3.558594 12.601562 3.558594 11.921875 C 3.558594 11.242188 4.109375 10.691406 4.789062 10.691406 C 5.46875 10.691406 6.019531 11.242188 6.019531 11.921875 C 6.019531 12.601562 5.46875 13.152344 4.789062 13.152344 Z M 4.789062 13.152344 "/>
<path style=" stroke:none;fill-rule:nonzero;fill:rgb(62.745098%,66.666667%,71.764706%);fill-opacity:1;" d="M 7.320312 6.765625 L 8.175781 5.289062 L 5.292969 0.300781 C 5.269531 0.253906 5.207031 0.21875 5.15625 0.21875 C 4.796875 0.425781 4.65625 0.867188 4.824219 1.242188 Z M 7.320312 6.765625 "/>
<path style=" stroke:none;fill-rule:nonzero;fill:rgb(62.745098%,66.666667%,71.764706%);fill-opacity:1;" d="M 13.304688 11.007812 C 12.851562 10.136719 11.847656 9.757812 10.957031 10.042969 C 10.9375 10.046875 10.917969 10.042969 10.910156 10.027344 L 9.027344 6.765625 L 8.476562 7.988281 C 8.472656 7.996094 8.460938 8.003906 8.453125 8.003906 L 8.175781 8.042969 L 8.921875 8.152344 C 8.933594 8.152344 8.941406 8.160156 8.945312 8.167969 L 10.242188 10.410156 C 10.25 10.425781 10.246094 10.449219 10.234375 10.460938 C 9.652344 10.984375 9.4375 11.808594 9.691406 12.550781 C 9.695312 12.566406 9.691406 12.582031 9.679688 12.59375 L 8.835938 13.347656 C 8.792969 13.386719 8.78125 13.441406 8.800781 13.488281 C 8.820312 13.542969 8.867188 13.574219 8.917969 13.574219 C 8.933594 13.574219 8.945312 13.570312 8.960938 13.566406 L 10.039062 13.214844 C 10.054688 13.207031 10.070312 13.214844 10.078125 13.226562 C 10.703125 13.933594 11.773438 14.117188 12.609375 13.585938 C 13.472656 13.042969 13.777344 11.914062 13.304688 11.007812 Z M 11.558594 13.152344 C 10.878906 13.152344 10.328125 12.601562 10.328125 11.921875 C 10.328125 11.242188 10.878906 10.691406 11.558594 10.691406 C 12.238281 10.691406 12.789062 11.242188 12.789062 11.921875 C 12.789062 12.601562 12.238281 13.152344 11.558594 13.152344 Z M 11.558594 13.152344 "/>
<path style=" stroke:none;fill-rule:nonzero;fill:rgb(85.490196%,89.411765%,91.764706%);fill-opacity:1;" d="M 8.933594 6.800781 C 8.933594 7.21875 8.59375 7.558594 8.175781 7.558594 C 7.753906 7.558594 7.414062 7.21875 7.414062 6.800781 C 7.414062 6.378906 7.753906 6.039062 8.175781 6.039062 C 8.59375 6.039062 8.933594 6.378906 8.933594 6.800781 Z M 8.933594 6.800781 "/>
<path style=" stroke:none;fill-rule:nonzero;fill:rgb(77.647059%,81.568627%,85.490196%);fill-opacity:1;" d="M 8.351562 6.0625 C 8.441406 6.1875 8.496094 6.339844 8.496094 6.507812 C 8.496094 6.925781 8.15625 7.269531 7.734375 7.269531 C 7.675781 7.269531 7.617188 7.261719 7.558594 7.246094 C 7.699219 7.4375 7.921875 7.558594 8.175781 7.558594 C 8.59375 7.558594 8.933594 7.21875 8.933594 6.800781 C 8.933594 6.441406 8.683594 6.140625 8.351562 6.0625 Z M 8.351562 6.0625 "/>
<path style=" stroke:none;fill-rule:nonzero;fill:rgb(0%,0%,0%);fill-opacity:1;" d="M 2.144531 15 L 2.664062 15 C 3.304688 15 3.902344 14.65625 4.226562 14.097656 L 4.257812 14.046875 C 5.199219 14.28125 6.199219 13.859375 6.6875 13.015625 C 7.175781 12.171875 7.035156 11.09375 6.367188 10.398438 L 7.546875 8.355469 L 8.175781 8.265625 L 8.800781 8.355469 L 9.980469 10.398438 C 9.441406 10.957031 9.238281 11.757812 9.445312 12.507812 L 8.6875 13.1875 C 8.410156 13.433594 8.667969 13.894531 9.027344 13.777344 L 9.996094 13.457031 C 10.714844 14.1875 11.851562 14.324219 12.726562 13.773438 C 13.6875 13.167969 14.023438 11.910156 13.5 10.90625 C 13.027344 10 12.003906 9.550781 11.027344 9.792969 L 9.273438 6.753906 L 11.722656 1.335938 C 11.941406 0.855469 11.757812 0.292969 11.300781 0.03125 C 11.269531 0.0117188 11.230469 0 11.191406 0 C 11.0625 0 10.929688 0.078125 10.863281 0.191406 L 8.175781 4.847656 L 7.828125 4.246094 C 7.765625 4.140625 7.632812 4.105469 7.527344 4.167969 C 7.421875 4.226562 7.386719 4.363281 7.445312 4.464844 L 7.921875 5.289062 C 7.25 6.449219 7.398438 6.191406 7.34375 6.28125 L 5.023438 1.152344 C 4.921875 0.921875 4.976562 0.660156 5.152344 0.492188 L 6.921875 3.554688 C 6.980469 3.660156 7.117188 3.695312 7.222656 3.636719 C 7.324219 3.574219 7.363281 3.441406 7.300781 3.335938 L 5.484375 0.191406 C 5.421875 0.078125 5.285156 0 5.15625 0 C 5.117188 0 5.078125 0.0117188 5.046875 0.03125 C 4.589844 0.292969 4.410156 0.855469 4.625 1.335938 L 7.074219 6.753906 L 5.320312 9.792969 C 4.371094 9.558594 3.363281 9.988281 2.878906 10.851562 C 2.820312 10.957031 2.855469 11.089844 2.960938 11.148438 C 3.066406 11.207031 3.203125 11.171875 3.261719 11.066406 C 3.667969 10.339844 4.535156 9.996094 5.324219 10.25 C 5.441406 10.289062 5.566406 10.238281 5.628906 10.136719 L 7.300781 7.242188 C 7.488281 7.617188 7.902344 7.839844 8.335938 7.765625 L 8.316406 7.800781 C 7.972656 7.851562 7.738281 7.886719 7.394531 7.933594 C 7.316406 7.945312 7.25 7.988281 7.210938 8.058594 L 5.917969 10.300781 C 5.855469 10.40625 5.878906 10.542969 5.96875 10.621094 C 6.574219 11.171875 6.71875 12.085938 6.308594 12.796875 C 5.894531 13.507812 5.03125 13.839844 4.25 13.585938 C 4.132812 13.550781 4.007812 13.597656 3.945312 13.703125 L 3.84375 13.878906 C 3.601562 14.300781 3.148438 14.5625 2.664062 14.5625 L 2.144531 14.5625 C 1.941406 14.5625 1.777344 14.429688 1.71875 14.261719 L 2.664062 14.261719 C 3.042969 14.261719 3.394531 14.058594 3.585938 13.730469 L 3.683594 13.558594 C 3.746094 13.449219 3.722656 13.316406 3.632812 13.234375 C 3.257812 12.902344 3.042969 12.425781 3.039062 11.917969 C 3.039062 11.800781 2.941406 11.699219 2.820312 11.699219 C 2.699219 11.703125 2.601562 11.800781 2.601562 11.921875 C 2.601562 12.5 2.832031 13.054688 3.230469 13.460938 L 3.203125 13.507812 C 3.09375 13.703125 2.886719 13.820312 2.664062 13.820312 L 1.542969 13.820312 C 1.382812 13.820312 1.253906 13.949219 1.253906 14.109375 C 1.253906 14.601562 1.652344 15 2.144531 15 Z M 10.71875 10.136719 C 10.78125 10.238281 10.90625 10.289062 11.023438 10.25 C 11.835938 9.988281 12.714844 10.351562 13.113281 11.109375 C 13.53125 11.914062 13.257812 12.917969 12.492188 13.402344 C 11.761719 13.863281 10.8125 13.726562 10.242188 13.078125 C 10.175781 13.003906 10.066406 12.972656 9.96875 13.003906 L 9.304688 13.222656 L 9.824219 12.757812 C 9.902344 12.6875 9.929688 12.582031 9.898438 12.480469 C 9.671875 11.820312 9.863281 11.089844 10.378906 10.621094 C 10.46875 10.542969 10.492188 10.40625 10.429688 10.300781 L 9.136719 8.058594 C 9.097656 7.988281 9.03125 7.945312 8.953125 7.933594 L 8.753906 7.90625 L 9.050781 7.246094 Z M 7.980469 6.296875 C 8.332031 6.160156 8.714844 6.421875 8.714844 6.800781 C 8.714844 6.867188 8.703125 6.933594 8.679688 6.996094 Z M 11.195312 0.492188 C 11.371094 0.660156 11.425781 0.921875 11.324219 1.152344 L 9.003906 6.28125 C 8.820312 5.988281 8.488281 5.800781 8.117188 5.824219 C 9.480469 3.464844 10.976562 0.867188 11.195312 0.492188 Z M 7.632812 6.800781 C 7.632812 6.730469 7.644531 6.667969 7.667969 6.605469 L 8.367188 7.304688 C 8.015625 7.441406 7.632812 7.179688 7.632812 6.800781 Z M 7.632812 6.800781 "/>
<path style=" stroke:none;fill-rule:nonzero;fill:rgb(0%,0%,0%);fill-opacity:1;" d="M 4.789062 13.371094 C 5.589844 13.371094 6.242188 12.71875 6.242188 11.921875 C 6.242188 11.121094 5.589844 10.46875 4.789062 10.46875 C 3.988281 10.46875 3.339844 11.121094 3.339844 11.921875 C 3.339844 12.71875 3.988281 13.371094 4.789062 13.371094 Z M 4.789062 10.910156 C 5.347656 10.910156 5.800781 11.363281 5.800781 11.921875 C 5.800781 12.476562 5.347656 12.933594 4.789062 12.933594 C 4.230469 12.933594 3.777344 12.476562 3.777344 11.921875 C 3.777344 11.363281 4.230469 10.910156 4.789062 10.910156 Z M 4.789062 10.910156 "/>
<path style=" stroke:none;fill-rule:nonzero;fill:rgb(0%,0%,0%);fill-opacity:1;" d="M 11.558594 13.371094 C 11.90625 13.371094 12.246094 13.246094 12.507812 13.015625 C 12.601562 12.933594 12.609375 12.796875 12.53125 12.707031 C 12.453125 12.613281 12.3125 12.605469 12.222656 12.683594 C 12.039062 12.84375 11.800781 12.933594 11.558594 12.933594 C 11 12.933594 10.546875 12.476562 10.546875 11.921875 C 10.546875 11.363281 11 10.910156 11.558594 10.910156 C 12.117188 10.910156 12.570312 11.363281 12.570312 11.921875 C 12.570312 12.042969 12.667969 12.140625 12.789062 12.140625 C 12.910156 12.140625 13.007812 12.042969 13.007812 11.921875 C 13.007812 11.121094 12.359375 10.46875 11.558594 10.46875 C 10.757812 10.46875 10.105469 11.121094 10.105469 11.921875 C 10.105469 12.71875 10.757812 13.371094 11.558594 13.371094 Z M 11.558594 13.371094 "/>
</g>
</svg>
