<?xml version="1.0" encoding="UTF-8"?>
<svg xmlns="http://www.w3.org/2000/svg" xmlns:xlink="http://www.w3.org/1999/xlink" width="30pt" height="30pt" viewBox="0 0 30 30" version="1.1">
<g id="surface1">
<path style=" stroke:none;fill-rule:nonzero;fill:rgb(72.54902%,75.686275%,79.607843%);fill-opacity:1;" d="M 22.386719 0.4375 C 22.285156 0.4375 22.15625 0.511719 22.105469 0.601562 L 10.875 20.050781 C 10.859375 20.082031 10.820312 20.097656 10.785156 20.085938 C 9.039062 19.523438 7.074219 20.246094 6.140625 21.914062 C 5.222656 23.550781 5.609375 25.59375 6.972656 26.796875 C 7 26.824219 7.007812 26.863281 6.988281 26.894531 L 6.789062 27.238281 C 6.488281 27.757812 5.929688 28.082031 5.328125 28.082031 L 3.085938 28.082031 C 3.007812 28.082031 2.945312 28.140625 2.945312 28.21875 C 2.945312 28.957031 3.546875 29.5625 4.285156 29.5625 L 5.328125 29.5625 C 6.460938 29.5625 7.503906 28.957031 8.070312 27.980469 L 8.273438 27.625 C 8.292969 27.59375 8.328125 27.582031 8.363281 27.59375 C 10.097656 28.15625 12.046875 27.453125 12.996094 25.8125 C 13.941406 24.175781 13.578125 22.140625 12.230469 20.917969 C 12.203125 20.894531 12.195312 20.855469 12.214844 20.824219 L 14.804688 16.332031 C 14.816406 16.316406 14.832031 16.304688 14.851562 16.304688 L 16.902344 16.011719 C 16.925781 16.007812 16.941406 15.992188 16.949219 15.976562 L 23.046875 2.488281 C 23.382812 1.738281 23.097656 0.851562 22.386719 0.4375 Z M 9.582031 26.304688 C 8.21875 26.304688 7.117188 25.199219 7.117188 23.839844 C 7.117188 22.480469 8.21875 21.378906 9.582031 21.378906 C 10.941406 21.378906 12.042969 22.480469 12.042969 23.839844 C 12.042969 25.199219 10.941406 26.304688 9.582031 26.304688 Z M 9.582031 26.304688 "/>
<path style=" stroke:none;fill-rule:nonzero;fill:rgb(62.745098%,66.666667%,71.764706%);fill-opacity:1;" d="M 14.640625 13.53125 L 16.347656 10.574219 L 10.589844 0.601562 C 10.539062 0.511719 10.414062 0.4375 10.308594 0.4375 C 9.597656 0.851562 9.3125 1.738281 9.652344 2.488281 Z M 14.640625 13.53125 "/>
<path style=" stroke:none;fill-rule:nonzero;fill:rgb(62.745098%,66.666667%,71.764706%);fill-opacity:1;" d="M 26.613281 22.019531 C 25.699219 20.273438 23.691406 19.511719 21.910156 20.085938 C 21.875 20.097656 21.835938 20.082031 21.820312 20.050781 L 18.054688 13.53125 L 16.949219 15.976562 C 16.941406 15.992188 16.925781 16.007812 16.902344 16.011719 L 16.347656 16.089844 L 17.84375 16.304688 C 17.863281 16.304688 17.878906 16.316406 17.890625 16.332031 L 20.480469 20.824219 C 20.5 20.855469 20.492188 20.894531 20.464844 20.917969 C 19.308594 21.96875 18.875 23.621094 19.378906 25.105469 C 19.390625 25.132812 19.382812 25.167969 19.359375 25.1875 L 17.667969 26.699219 C 17.589844 26.773438 17.5625 26.878906 17.601562 26.980469 C 17.640625 27.082031 17.730469 27.148438 17.835938 27.148438 C 17.863281 27.148438 17.894531 27.144531 17.921875 27.132812 L 20.078125 26.425781 C 20.105469 26.417969 20.136719 26.425781 20.15625 26.449219 C 21.40625 27.867188 23.546875 28.230469 25.222656 27.175781 C 26.949219 26.085938 27.558594 23.828125 26.613281 22.019531 Z M 23.117188 26.304688 C 21.757812 26.304688 20.652344 25.199219 20.652344 23.839844 C 20.652344 22.480469 21.757812 21.378906 23.117188 21.378906 C 24.476562 21.378906 25.578125 22.480469 25.578125 23.839844 C 25.578125 25.199219 24.476562 26.304688 23.117188 26.304688 Z M 23.117188 26.304688 "/>
<path style=" stroke:none;fill-rule:nonzero;fill:rgb(85.490196%,89.411765%,91.764706%);fill-opacity:1;" d="M 17.867188 13.601562 C 17.867188 14.441406 17.1875 15.121094 16.347656 15.121094 C 15.507812 15.121094 14.828125 14.441406 14.828125 13.601562 C 14.828125 12.761719 15.507812 12.082031 16.347656 12.082031 C 17.1875 12.082031 17.867188 12.761719 17.867188 13.601562 Z M 17.867188 13.601562 "/>
<path style=" stroke:none;fill-rule:nonzero;fill:rgb(77.647059%,81.568627%,85.490196%);fill-opacity:1;" d="M 16.699219 12.121094 C 16.882812 12.371094 16.988281 12.679688 16.988281 13.015625 C 16.988281 13.855469 16.308594 14.535156 15.46875 14.535156 C 15.347656 14.535156 15.230469 14.519531 15.117188 14.496094 C 15.394531 14.875 15.84375 15.121094 16.347656 15.121094 C 17.1875 15.121094 17.867188 14.441406 17.867188 13.601562 C 17.867188 12.882812 17.371094 12.28125 16.699219 12.121094 Z M 16.699219 12.121094 "/>
<path style=" stroke:none;fill-rule:nonzero;fill:rgb(0%,0%,0%);fill-opacity:1;" d="M 4.285156 30 L 5.328125 30 C 6.613281 30 7.808594 29.308594 8.449219 28.199219 L 8.511719 28.089844 C 10.398438 28.566406 12.402344 27.71875 13.375 26.03125 C 14.351562 24.339844 14.074219 22.1875 12.734375 20.796875 L 15.09375 16.710938 L 16.347656 16.53125 L 17.601562 16.710938 L 19.960938 20.796875 C 18.882812 21.914062 18.476562 23.519531 18.894531 25.015625 L 17.378906 26.371094 C 16.820312 26.871094 17.339844 27.789062 18.058594 27.550781 L 19.992188 26.917969 C 21.429688 28.375 23.703125 28.652344 25.457031 27.546875 C 27.371094 26.339844 28.050781 23.820312 27 21.816406 C 26.054688 20.003906 24.011719 19.097656 22.058594 19.585938 L 18.546875 13.507812 L 23.445312 2.667969 C 23.878906 1.707031 23.519531 0.585938 22.605469 0.0585938 C 22.539062 0.0195312 22.460938 0 22.386719 0 C 22.128906 0 21.855469 0.15625 21.726562 0.378906 L 16.347656 9.695312 L 15.652344 8.492188 C 15.53125 8.285156 15.261719 8.210938 15.054688 8.332031 C 14.84375 8.453125 14.773438 8.722656 14.894531 8.933594 L 15.839844 10.574219 C 14.5 12.898438 14.800781 12.382812 14.6875 12.5625 L 10.050781 2.308594 C 9.84375 1.847656 9.953125 1.320312 10.304688 0.988281 L 13.84375 7.113281 C 13.964844 7.324219 14.230469 7.394531 14.441406 7.273438 C 14.652344 7.152344 14.722656 6.882812 14.601562 6.671875 L 10.96875 0.378906 C 10.839844 0.15625 10.570312 0 10.308594 0 C 10.234375 0 10.15625 0.0195312 10.089844 0.0585938 C 9.175781 0.585938 8.816406 1.707031 9.25 2.667969 L 14.148438 13.507812 L 10.636719 19.585938 C 8.742188 19.113281 6.722656 19.972656 5.757812 21.699219 C 5.636719 21.914062 5.714844 22.179688 5.925781 22.296875 C 6.136719 22.417969 6.402344 22.339844 6.523438 22.128906 C 7.335938 20.679688 9.070312 19.996094 10.652344 20.503906 C 10.882812 20.578125 11.136719 20.480469 11.257812 20.269531 L 14.597656 14.480469 C 14.976562 15.230469 15.804688 15.675781 16.667969 15.535156 L 16.636719 15.605469 C 15.945312 15.703125 15.472656 15.769531 14.789062 15.867188 C 14.636719 15.890625 14.503906 15.980469 14.425781 16.113281 L 11.832031 20.605469 C 11.710938 20.8125 11.753906 21.082031 11.933594 21.246094 C 13.148438 22.34375 13.433594 24.171875 12.613281 25.59375 C 11.792969 27.019531 10.0625 27.683594 8.5 27.175781 C 8.269531 27.101562 8.015625 27.199219 7.894531 27.40625 L 7.691406 27.757812 C 7.203125 28.601562 6.300781 29.121094 5.328125 29.121094 L 4.285156 29.121094 C 3.886719 29.121094 3.554688 28.863281 3.433594 28.519531 L 5.328125 28.519531 C 6.085938 28.519531 6.789062 28.113281 7.167969 27.457031 L 7.367188 27.113281 C 7.488281 26.902344 7.445312 26.632812 7.261719 26.46875 C 6.515625 25.808594 6.082031 24.847656 6.078125 23.839844 C 6.078125 23.601562 5.886719 23.402344 5.640625 23.402344 C 5.398438 23.402344 5.199219 23.601562 5.203125 23.84375 C 5.207031 25.003906 5.664062 26.109375 6.464844 26.921875 L 6.410156 27.019531 C 6.1875 27.402344 5.773438 27.640625 5.328125 27.640625 L 3.085938 27.640625 C 2.765625 27.640625 2.507812 27.898438 2.507812 28.214844 C 2.503906 29.199219 3.300781 30 4.285156 30 Z M 21.4375 20.269531 C 21.558594 20.480469 21.816406 20.578125 22.046875 20.503906 C 23.671875 19.980469 25.429688 20.703125 26.222656 22.222656 C 27.0625 23.824219 26.519531 25.839844 24.988281 26.804688 C 23.523438 27.726562 21.628906 27.457031 20.488281 26.160156 C 20.351562 26.003906 20.136719 25.945312 19.941406 26.011719 L 18.609375 26.445312 L 19.652344 25.515625 C 19.804688 25.375 19.863281 25.160156 19.796875 24.964844 C 19.347656 23.640625 19.726562 22.183594 20.761719 21.246094 C 20.941406 21.082031 20.984375 20.8125 20.863281 20.605469 L 18.269531 16.113281 C 18.191406 15.980469 18.0625 15.890625 17.90625 15.867188 L 17.507812 15.8125 L 18.101562 14.492188 Z M 15.960938 12.589844 C 16.664062 12.320312 17.429688 12.84375 17.429688 13.601562 C 17.429688 13.738281 17.402344 13.867188 17.355469 13.988281 Z M 22.390625 0.988281 C 22.742188 1.320312 22.851562 1.847656 22.644531 2.308594 L 18.011719 12.5625 C 17.640625 11.972656 16.972656 11.605469 16.238281 11.644531 C 18.960938 6.929688 21.957031 1.738281 22.390625 0.988281 Z M 15.265625 13.601562 C 15.265625 13.464844 15.292969 13.332031 15.339844 13.210938 L 16.734375 14.609375 C 16.03125 14.882812 15.265625 14.359375 15.265625 13.601562 Z M 15.265625 13.601562 "/>
<path style=" stroke:none;fill-rule:nonzero;fill:rgb(0%,0%,0%);fill-opacity:1;" d="M 9.578125 26.742188 C 11.179688 26.742188 12.480469 25.441406 12.480469 23.839844 C 12.480469 22.242188 11.179688 20.941406 9.578125 20.941406 C 7.980469 20.941406 6.679688 22.242188 6.679688 23.839844 C 6.679688 25.441406 7.980469 26.742188 9.578125 26.742188 Z M 9.578125 21.816406 C 10.695312 21.816406 11.601562 22.726562 11.601562 23.839844 C 11.601562 24.957031 10.695312 25.863281 9.578125 25.863281 C 8.464844 25.863281 7.558594 24.957031 7.558594 23.839844 C 7.558594 22.726562 8.464844 21.816406 9.578125 21.816406 Z M 9.578125 21.816406 "/>
<path style=" stroke:none;fill-rule:nonzero;fill:rgb(0%,0%,0%);fill-opacity:1;" d="M 23.117188 26.742188 C 23.816406 26.742188 24.492188 26.488281 25.019531 26.03125 C 25.203125 25.871094 25.222656 25.59375 25.0625 25.410156 C 24.902344 25.226562 24.625 25.207031 24.441406 25.367188 C 24.074219 25.6875 23.605469 25.863281 23.117188 25.863281 C 22 25.863281 21.09375 24.957031 21.09375 23.839844 C 21.09375 22.726562 22 21.816406 23.117188 21.816406 C 24.230469 21.816406 25.140625 22.726562 25.140625 23.839844 C 25.140625 24.082031 25.335938 24.28125 25.578125 24.28125 C 25.820312 24.28125 26.015625 24.082031 26.015625 23.839844 C 26.015625 22.242188 24.714844 20.941406 23.117188 20.941406 C 21.515625 20.941406 20.214844 22.242188 20.214844 23.839844 C 20.214844 25.441406 21.515625 26.742188 23.117188 26.742188 Z M 23.117188 26.742188 "/>
</g>
</svg>
