<svg id="Capa_1" enable-background="new 0 0 512.556 512.556" height="512" viewBox="0 0 512.556 512.556" width="512" xmlns="http://www.w3.org/2000/svg"><g><g><g><path d="m382.465 7.5c-1.747 0-3.89 1.238-4.763 2.75l-191.87 332.328c-.314.543-.962.785-1.559.593-29.841-9.612-63.398 2.709-79.385 31.261-15.647 27.942-9.048 62.848 14.227 83.419.469.415.588 1.097.275 1.64l-3.401 5.891c-5.126 8.879-14.681 14.396-24.936 14.396h-38.359c-1.29 0-2.37 1.033-2.373 2.322-.027 12.653 10.26 22.956 22.906 22.956h17.826c19.317 0 37.167-10.306 46.826-27.035l3.471-6.012c.311-.538.955-.778 1.546-.585 29.612 9.633 62.929-2.365 79.123-30.413 16.16-27.99 9.952-62.755-13.078-83.598-.465-.421-.58-1.104-.266-1.646l44.286-76.706c.161-.279.441-.469.76-.514l35.075-5.009c.355-.051.66-.28.808-.607l104.127-230.429c5.797-12.829.926-27.963-11.266-35.002zm-218.787 441.892c-23.232 0-42.065-18.833-42.065-42.064 0-23.232 18.833-42.065 42.065-42.065s42.065 18.833 42.065 42.065c-.001 23.231-18.834 42.064-42.065 42.064z" fill="#b9c1cb"/></g></g><g><path d="m250.146 231.183 29.162-50.51-98.394-170.423c-.873-1.512-3.017-2.75-4.763-2.75-12.192 7.039-17.063 22.173-11.266 35.002z" fill="#a0aab7"/></g><g><g><path d="m454.678 376.187c-15.576-29.799-49.889-42.823-80.335-33.016-.597.192-1.246-.05-1.559-.593l-64.314-111.395-18.865 41.748c-.148.327-.453.556-.808.607l-9.489 1.355 25.586 3.654c.319.046.599.235.76.514l44.286 76.706c.313.543.199 1.226-.266 1.646-19.809 17.928-27.172 46.156-18.56 71.514.169.497.031 1.046-.361 1.396l-28.862 25.834c-1.39 1.244-1.844 3.085-1.187 4.806.666 1.741 2.256 2.867 4.051 2.867.475 0 .956-.079 1.431-.235l36.826-12.086c.498-.164 1.042-.01 1.389.384 21.334 24.244 57.88 30.439 86.518 12.39 29.492-18.588 39.908-57.201 23.759-88.096zm-59.74 73.205c-23.232 0-42.065-18.833-42.065-42.064 0-23.232 18.833-42.065 42.065-42.065s42.065 18.833 42.065 42.065c0 23.231-18.833 42.064-42.065 42.064z" fill="#a0aab7"/></g></g><g><circle cx="279.308" cy="232.368" fill="#dae4ea" r="25.97"/></g><g><path d="m285.315 207.097c3.121 4.286 4.962 9.563 4.962 15.271 0 14.343-11.627 25.969-25.97 25.969-2.068 0-4.079-.242-6.007-.699 4.722 6.484 12.372 10.699 21.007 10.699 14.343 0 25.97-11.627 25.97-25.969.001-12.275-8.516-22.56-19.962-25.271z" fill="#c6d0da"/></g><path d="m73.228 512.556h17.826c21.926 0 42.357-11.796 53.321-30.784l1.05-1.819c32.238 8.102 66.461-6.389 83.09-35.191 16.681-28.893 11.942-65.688-10.936-89.416l40.309-69.817 21.421-3.059 21.419 3.058 40.308 69.814c-18.425 19.058-25.388 46.47-18.245 72.043l-25.9 23.183c-9.506 8.506-.659 24.186 11.634 20.153l33.061-10.85c24.539 24.931 63.36 29.647 93.333 10.756 32.726-20.626 44.325-63.635 26.407-97.915-16.182-30.958-51.096-46.423-84.458-38.062l-59.979-103.887 83.676-185.173c7.417-16.412 1.247-35.58-14.35-44.585-1.14-.658-2.434-1.005-3.75-1.005-4.418 0-9.048 2.672-11.259 6.5l-91.898 159.173-11.868-20.556c-2.071-3.587-6.658-4.817-10.245-2.745-3.587 2.071-4.816 6.658-2.745 10.245l16.198 28.056c-22.913 39.687-17.8 30.901-19.735 33.993l-79.194-175.253c-3.554-7.866-1.635-16.842 4.351-22.553l60.426 104.661c2.071 3.588 6.658 4.816 10.245 2.745s4.816-6.658 2.745-10.245l-62.076-107.52c-2.209-3.828-6.839-6.501-11.259-6.501-1.316 0-2.61.347-3.75 1.005-15.598 9.005-21.767 28.173-14.351 44.585l83.677 185.175-59.981 103.89c-32.411-8.071-66.866 6.582-83.402 36.112-2.024 3.614-.734 8.185 2.879 10.208 3.614 2.023 8.185.734 10.208-2.879 13.884-24.794 43.551-36.48 70.54-27.787 3.935 1.269 8.291-.405 10.355-3.981l57.097-98.896c6.484 12.811 20.615 20.393 35.357 17.958l-.553 1.224c-11.786 1.683-19.87 2.838-31.563 4.507-2.619.373-4.879 1.9-6.2 4.189l-44.286 76.706c-2.063 3.574-1.337 8.182 1.729 10.957 20.744 18.774 25.629 50.016 11.616 74.288-14.054 24.343-43.621 35.711-70.307 27.031-3.938-1.282-8.293.387-10.362 3.967l-3.471 6.012c-8.292 14.362-23.746 23.285-40.331 23.285h-17.824c-6.828 0-12.466-4.433-14.532-10.278h32.357c12.925 0 24.969-6.954 31.431-18.147l3.399-5.888c2.088-3.613 1.33-8.245-1.802-11.012-12.787-11.301-20.151-27.676-20.207-44.927-.013-4.093-3.317-7.476-7.524-7.476-4.142.013-7.489 3.382-7.476 7.524.064 19.813 7.87 38.714 21.578 52.619l-.959 1.661c-3.791 6.566-10.856 10.646-18.44 10.646h-38.359c-5.434 0-9.862 4.4-9.873 9.806-.035 16.81 13.593 30.472 30.407 30.472zm293.061-166.228c2.063 3.573 6.416 5.249 10.354 3.981 27.797-8.955 57.82 3.392 71.389 29.352 14.325 27.404 5.051 61.787-21.111 78.277-25.051 15.788-57.387 11.162-76.888-10.999-2.336-2.655-6.012-3.658-9.359-2.556l-22.709 7.453 17.788-15.922c2.636-2.357 3.604-6.047 2.464-9.399-7.671-22.59-1.198-47.532 16.49-63.54 3.067-2.774 3.795-7.383 1.73-10.958l-44.28-76.695c-1.32-2.296-3.582-3.827-6.202-4.2l-6.859-.979 10.189-22.549zm-93.613-131.199c12.043-4.65 25.102 4.288 25.102 17.238 0 2.336-.436 4.573-1.231 6.632zm109.87-198.269c5.985 5.711 7.905 14.687 4.351 22.553l-79.193 175.253c-6.315-10.092-17.713-16.417-30.288-15.714 46.507-80.554 97.721-169.26 105.13-182.092zm-121.707 215.508c0-2.336.436-4.572 1.231-6.632l23.87 23.87c-12.044 4.65-25.101-4.289-25.101-17.238z"/><path d="m163.677 456.892c27.33 0 49.565-22.234 49.565-49.564s-22.235-49.564-49.565-49.564-49.564 22.234-49.564 49.564 22.234 49.564 49.564 49.564zm0-84.129c19.059 0 34.565 15.505 34.565 34.564s-15.506 34.564-34.565 34.564-34.564-15.505-34.564-34.564 15.505-34.564 34.564-34.564z"/><path d="m394.938 456.892c11.959 0 23.51-4.319 32.523-12.161 3.125-2.719 3.454-7.457.735-10.582-2.72-3.125-7.457-3.453-10.582-.735-6.283 5.467-14.336 8.478-22.676 8.478-19.059 0-34.564-15.505-34.564-34.564s15.505-34.564 34.564-34.564 34.564 15.505 34.564 34.564c0 4.142 3.358 7.5 7.5 7.5s7.5-3.358 7.5-7.5c0-27.33-22.234-49.564-49.564-49.564s-49.564 22.234-49.564 49.564 22.234 49.564 49.564 49.564z"/></g></svg>